# xmcd CD database file
#
# Track frame offsets:
#	150
#	15480
#	33579
#	50618
#	67278
#	87780
#	104910
#	119771
#	136442
#	156774
#	170934
#	183473
#
# Disc length: 2719 seconds
#
# Revision: 0
# Processed by: cddbd v1.4PL0 Copyright (c) Steve Scherf et al.
# Submitted via: CDex 1.40Release
#
DISCID=b70a9d0c
DTITLE=Val LeRoy - Waiting For the Sun
DYEAR=2001
DGENRE=Country
TTITLE0=After All
TTITLE1=Shakin' The Floor
TTITLE2=Into You
TTITLE3=Radio Up Windows Down
TTITLE4=Waiting For The Sun
TTITLE5=Longest Seven Nights
TTITLE6=Next Time
TTITLE7=I Still Dream
TTITLE8=Control Of Me
TTITLE9=How Seldom I Do
TTITLE10=I Found It
TTITLE11=My Best Friend
EXTD=YEAR: 2001 ID3G: 2
EXTT0=
EXTT1=
EXTT2=
EXTT3=
EXTT4=
EXTT5=
EXTT6=
EXTT7=
EXTT8=
EXTT9=
EXTT10=
EXTT11=
PLAYORDER=
